<svg width="438" height="161" viewBox="0 0 438 161" fill="none" xmlns="http://www.w3.org/2000/svg">
<path d="M341.071 156.167C341.071 154.363 342.533 152.9 344.337 152.9H419.721C425.244 152.9 429.721 148.423 429.721 142.9V63.1888C429.721 52.49 415.185 49.2643 410.66 58.9589L388.167 107.144C384.574 114.841 373.627 114.836 370.041 107.137L347.536 58.8258C343.016 49.1237 328.471 52.3453 328.471 63.0486V156.161C328.471 158.069 326.89 159.598 324.983 159.534C323.164 159.473 321.721 157.981 321.721 156.161V6.04786C321.721 3.77104 323.567 1.92531 325.843 1.92531C327.446 1.92531 328.904 2.85421 329.58 4.30703L370.041 91.1616C373.627 98.8613 384.574 98.8656 388.167 91.1688L428.657 4.42961C429.31 3.03121 430.693 2.11792 432.235 2.0665C434.551 1.9893 436.471 3.84605 436.471 6.16361V149.627C436.471 155.159 431.979 159.64 426.447 159.627L344.33 159.433C342.529 159.429 341.071 157.968 341.071 156.167Z" fill="black"/>
<path d="M202.944 156.275C202.944 154.411 204.455 152.9 206.319 152.9H271.467C278.407 152.9 283.236 146.005 280.865 139.483L247.44 47.5643C244.249 38.7882 231.837 38.7874 228.645 47.5631L188.679 157.424C188.193 158.761 186.922 159.65 185.5 159.65C183.152 159.65 181.518 157.317 182.32 155.111L228.646 27.7593C231.839 18.984 244.249 18.984 247.441 27.7593L290.538 146.232C292.91 152.754 288.08 159.65 281.14 159.65H206.319C204.455 159.65 202.944 158.139 202.944 156.275Z" fill="black"/>
<path d="M25.7036 8.90032C23.8396 8.90032 22.3286 7.38928 22.3286 5.52532C22.3286 3.66136 23.8396 2.15031 25.7036 2.15031H158.575C165.515 2.15031 170.345 9.0468 167.972 15.5688L124.858 134.091C121.668 142.861 109.268 142.868 106.067 134.103L95.6582 105.598C92.4551 96.8265 80.0443 96.8419 76.8631 105.621L66.5872 133.98C63.4038 142.765 50.9821 142.772 47.7878 133.991L1.47994 6.68998C0.677299 4.48349 2.31132 2.15031 4.65926 2.15031C6.08173 2.15031 7.35226 3.04011 7.83856 4.37687L47.7876 114.192C50.982 122.973 63.4036 122.965 66.5869 114.18L76.8631 85.8212C80.0443 77.0419 92.4551 77.0265 95.6582 85.7979L106.066 114.298C109.267 123.064 121.668 123.056 124.857 114.285L158.3 22.3177C160.671 15.7959 155.841 8.90032 148.902 8.90032H25.7036Z" fill="black"/>
<path fill-rule="evenodd" clip-rule="evenodd" d="M340.071 156.167C340.071 153.81 341.981 151.9 344.337 151.9H418.721C424.244 151.9 428.721 147.423 428.721 141.9V67.6951C428.721 56.9962 414.185 53.7706 409.66 63.4653L388.166 109.51C384.573 117.207 373.626 117.202 370.04 109.503L348.536 63.3407C344.016 53.6385 329.471 56.8601 329.471 67.5634V156.161C329.471 158.634 327.422 160.616 324.95 160.533C322.592 160.455 320.721 158.52 320.721 156.161V6.04784C320.721 3.21874 323.014 0.925293 325.843 0.925293C327.835 0.925293 329.646 2.07951 330.487 3.88475L370.042 88.7954C373.628 96.4951 384.575 96.4995 388.168 88.8026L427.751 4.00662C428.563 2.26708 430.283 1.131 432.202 1.06704C435.083 0.971001 437.471 3.28071 437.471 6.16361V150.629C437.471 156.161 432.979 160.642 427.447 160.629L344.327 160.433C341.975 160.427 340.071 158.519 340.071 156.167ZM388.167 91.1688C384.574 98.8656 373.627 98.8613 370.041 91.1616L329.58 4.30703C328.904 2.85421 327.446 1.92531 325.843 1.92531C323.567 1.92531 321.721 3.77104 321.721 6.04786V156.161C321.721 157.981 323.164 159.473 324.983 159.534C326.89 159.598 328.471 158.069 328.471 156.161V63.0486C328.471 52.3453 343.016 49.1237 347.536 58.8258L370.041 107.137C373.627 114.836 384.574 114.841 388.167 107.144L410.66 58.9589C415.185 49.2643 429.721 52.49 429.721 63.1888V142.9C429.721 148.423 425.244 152.9 419.721 152.9H344.337C342.533 152.9 341.071 154.363 341.071 156.167C341.071 157.968 342.529 159.429 344.33 159.433L426.447 159.627C431.979 159.64 436.471 155.159 436.471 149.627V6.16361C436.471 3.84605 434.551 1.9893 432.235 2.0665C430.693 2.11792 429.31 3.03121 428.657 4.42961L388.167 91.1688Z" fill="black"/>
<path fill-rule="evenodd" clip-rule="evenodd" d="M201.944 156.275C201.944 153.859 203.903 151.9 206.319 151.9H270.039C276.979 151.9 281.809 145.005 279.437 138.483L247.44 50.49C244.248 41.7138 231.837 41.713 228.644 50.4888L189.619 157.766C188.988 159.498 187.342 160.65 185.499 160.65C182.458 160.65 180.341 157.627 181.38 154.769L228.646 24.8341C231.838 16.0588 244.249 16.0588 247.441 24.8341L291.965 147.232C294.338 153.754 289.508 160.65 282.568 160.65H206.319C203.903 160.65 201.944 158.692 201.944 156.275ZM188.679 157.424C188.193 158.761 186.922 159.65 185.5 159.65C183.152 159.65 181.518 157.317 182.32 155.111L228.646 27.7593C231.839 18.984 244.249 18.984 247.441 27.7593L290.538 146.232C292.91 152.754 288.08 159.65 281.14 159.65H206.319C204.455 159.65 202.944 158.139 202.944 156.275C202.944 154.411 204.455 152.9 206.319 152.9H271.467C278.407 152.9 283.236 146.005 280.865 139.483L247.44 47.5643C244.249 38.7882 231.837 38.7874 228.645 47.5631L188.679 157.424Z" fill="black"/>
<path fill-rule="evenodd" clip-rule="evenodd" d="M25.7037 9.90032C23.2875 9.90032 21.3287 7.94156 21.3287 5.52532C21.3287 3.10907 23.2875 1.15031 25.7037 1.15031H160.003C166.943 1.15031 171.773 8.04681 169.4 14.5688L124.86 137.011C121.67 145.781 109.27 145.789 106.069 137.023L95.6619 108.523C92.4589 99.7518 80.0481 99.7672 76.8668 108.546L66.5891 136.91C63.4057 145.695 50.9841 145.703 47.7898 136.921L0.540329 7.03183C-0.499564 4.17314 1.61745 1.15031 4.6594 1.15031C6.50233 1.15031 8.14841 2.30312 8.77845 4.03501L47.7859 111.262C50.9803 120.043 63.4019 120.035 66.5852 111.25L76.8596 82.8959C80.0409 74.1166 92.4516 74.1012 95.6547 82.8726L106.064 111.377C109.265 120.143 121.666 120.135 124.855 111.365L156.872 23.3178C159.244 16.7959 154.414 9.90032 147.474 9.90032H25.7037ZM148.902 8.90032C155.841 8.90032 160.671 15.7959 158.3 22.3177L124.857 114.285C121.668 123.056 109.267 123.064 106.066 114.298L95.6582 85.7979C92.4551 77.0265 80.0443 77.0419 76.8631 85.8212L66.5869 114.18C63.4036 122.965 50.982 122.973 47.7876 114.192L7.83856 4.37687C7.35226 3.04011 6.08173 2.15031 4.65926 2.15031C2.31132 2.15031 0.677299 4.48349 1.47994 6.68998L47.7878 133.991C50.9821 142.772 63.4038 142.765 66.5872 133.98L76.8631 105.621C80.0443 96.8419 92.4551 96.8265 95.6582 105.598L106.067 134.103C109.268 142.868 121.668 142.861 124.858 134.091L167.972 15.5688C170.345 9.0468 165.515 2.15031 158.575 2.15031H25.7036C23.8396 2.15031 22.3286 3.66136 22.3286 5.52532C22.3286 7.38928 23.8396 8.90032 25.7036 8.90032H148.902Z" fill="black"/>
</svg>
