<svg version="1.1" viewBox="0.0 0.0 771.6745406824147 593.6850393700787" fill="none" stroke="none" stroke-linecap="square" stroke-miterlimit="10" xmlns:xlink="http://www.w3.org/1999/xlink" xmlns="http://www.w3.org/2000/svg"><clipPath id="p.0"><path d="m0 0l771.67456 0l0 593.68506l-771.67456 0l0 -593.68506z" clip-rule="nonzero"/></clipPath><g clip-path="url(#p.0)"><path fill="#000000" fill-opacity="0.0" d="m0 0l771.67456 0l0 593.68506l-771.67456 0z" fill-rule="evenodd"/><path fill="#000000" fill-opacity="0.0" d="m32.656166 173.97638l706.3622 0l0 245.73227l-706.3622 0z" fill-rule="evenodd"/><path fill="#ffffff" d="m85.65461 194.74628l0 -9.875l220.32812 0l-83.98436 230.85938l-42.8125 -117.234375l-42.484375 117.234375l-83.98438 -230.85938l10.546875 0l73.43751 201.875l42.484375 -117.234375l42.8125 117.234375l69.812485 -192.0l-206.15625 0zm264.45044 210.78125l121.1875 0l-69.8125 -192.0l-73.4375 201.875l-10.546875 0l83.984375 -230.85938l83.984375 230.85938l-135.35938 0l0 -9.875zm202.20374 0l129.76562 0l0 -197.26562l-74.109375 158.73438l-74.09375 -159.07812l0 207.48438l-9.875 -0.328125l0 -230.53125l9.875 0l74.09375 159.0625l74.109375 -158.73438l9.875 -0.328125l0 230.85938l-139.64062 -0.328125l0 -9.546875z" fill-rule="nonzero"/></g></svg>